<?xml version="1.0" encoding="UTF-8" standalone="no"?>
<svg
   height="48"
   width="48"
   version="1.1"
   id="svg177"
   sodipodi:docname="info_FILL0_wght400_GRAD0_opsz48.svg"
   inkscape:export-filename="../17be6dda/info_FILL0_wght400_GRAD0_opsz48.png"
   inkscape:export-xdpi="4915.2002"
   inkscape:export-ydpi="4915.2002"
   inkscape:version="1.2.2 (732a01da63, 2022-12-09, custom)"
   xmlns:inkscape="http://www.inkscape.org/namespaces/inkscape"
   xmlns:sodipodi="http://sodipodi.sourceforge.net/DTD/sodipodi-0.dtd"
   xmlns="http://www.w3.org/2000/svg"
   xmlns:svg="http://www.w3.org/2000/svg">
  <defs
     id="defs181" />
  <sodipodi:namedview
     id="namedview179"
     pagecolor="#ffffff"
     bordercolor="#000000"
     borderopacity="0.25"
     inkscape:showpageshadow="2"
     inkscape:pageopacity="0.0"
     inkscape:pagecheckerboard="0"
     inkscape:deskcolor="#d1d1d1"
     showgrid="false"
     inkscape:zoom="19.604167"
     inkscape:cx="24.05101"
     inkscape:cy="24.025505"
     inkscape:window-width="2118"
     inkscape:window-height="1169"
     inkscape:window-x="0"
     inkscape:window-y="0"
     inkscape:window-maximized="1"
     inkscape:current-layer="svg177" />
  <path
     d="M22.65 34h3V22h-3ZM24 18.3q.7 0 1.175-.45.475-.45.475-1.15t-.475-1.2Q24.7 15 24 15q-.7 0-1.175.5-.475.5-.475 1.2t.475 1.15q.475.45 1.175.45ZM24 44q-4.1 0-7.75-1.575-3.65-1.575-6.375-4.3-2.725-2.725-4.3-6.375Q4 28.1 4 23.95q0-4.1 1.575-7.75 1.575-3.65 4.3-6.35 2.725-2.7 6.375-4.275Q19.9 4 24.05 4q4.1 0 7.75 1.575 3.65 1.575 6.35 4.275 2.7 2.7 4.275 6.35Q44 19.85 44 24q0 4.1-1.575 7.75-1.575 3.65-4.275 6.375t-6.35 4.3Q28.15 44 24 44Zm.05-3q7.05 0 12-4.975T41 23.95q0-7.05-4.95-12T24 7q-7.05 0-12.025 4.95Q7 16.9 7 24q0 7.05 4.975 12.025Q16.95 41 24.05 41ZM24 24Z"
     id="path175" />
</svg>
